<?xml version="1.0" encoding="UTF-8" standalone="no"?>
<svg width="8px" height="16px" viewBox="0 0 8 16" version="1.1" xmlns="http://www.w3.org/2000/svg" xmlns:xlink="http://www.w3.org/1999/xlink">
    <!-- Generator: Sketch 42 (36781) - http://www.bohemiancoding.com/sketch -->
    <title>facebook</title>
    <desc>Created with Sketch.</desc>
    <defs></defs>
    <g id="Herbarium-v2.0" stroke="none" stroke-width="1" fill="none" fill-rule="evenodd">
        <g id="Herbarium-info-social-v2.0" transform="translate(-1244.000000, -977.000000)" fill="#9B9B9B">
            <g id="share-white" transform="translate(1219.000000, 970.000000)">
                <g id="social" transform="translate(0.000000, 7.000000)">
                    <g id="facebook" transform="translate(25.000000, 0.000000)">
                        <path d="M5.44521956,5.24579284 L7.80446294,5.24579284 C7.6064635,6.16204027 7.4634639,6.78253853 7.31671431,7.57428631 L5.4309696,7.57428631 L5.4309696,15.0742653 L2.16172877,15.0742653 C2.16372877,12.7620218 2.16172877,10.0660293 2.16172877,7.60503622 L0.771732673,7.60503622 L0.771732673,5.24579284 L2.14722881,5.24579284 C2.21872861,3.51929768 2.24522854,1.81105247 3.10047614,0.939804919 C4.06572343,-0.0376923385 4.98397086,0.0785573353 7.78996298,0.0785573353 L7.78996298,2.49280056 C7.78996298,2.49280056 6.01046798,2.31530106 5.56571922,2.99679915 C5.32271991,3.3702981 5.4657195,4.46204504 5.44521956,5.24579284" id="Fill-6"></path>
                    </g>
                </g>
            </g>
        </g>
    </g>
</svg>