<?xml version="1.0" encoding="UTF-8" standalone="no"?>
<svg width="16px" height="14px" viewBox="0 0 16 14" version="1.1" xmlns="http://www.w3.org/2000/svg" xmlns:xlink="http://www.w3.org/1999/xlink">
    <!-- Generator: Sketch 42 (36781) - http://www.bohemiancoding.com/sketch -->
    <title>g+</title>
    <desc>Created with Sketch.</desc>
    <defs></defs>
    <g id="Herbarium-v2.0" stroke="none" stroke-width="1" fill="none" fill-rule="evenodd">
        <g id="Herbarium-info-social-v2.0" transform="translate(-1314.000000, -978.000000)" fill="#9B9B9B">
            <g id="share-white" transform="translate(1219.000000, 970.000000)">
                <g id="social" transform="translate(0.000000, 7.000000)">
                    <g id="g+" transform="translate(95.000000, 1.000000)">
                        <polygon id="Fill-1" points="15.9738878 2.64496573 15.9738878 3.64191927 13.4989043 3.64191927 13.4989043 6.08045697 12.5072211 6.08045697 12.5072211 3.64191927 10.0322376 3.64191927 10.0322376 2.64496573 12.5072211 2.64496573 12.5072211 0.206161462 13.4989043 0.206161462 13.4989043 2.64496573"></polygon>
                        <path d="M4.88609901,6.00038081 C5.95936634,6.03370145 6.72847525,4.92345773 6.54339274,3.52159177 C6.35831023,2.11972582 5.28953135,0.994021325 4.21177558,0.962833206 C3.13613201,0.931645088 2.41322772,2.00403656 2.60068647,3.40590251 C2.78576898,4.80776847 3.80834323,5.96919269 4.88609901,6.00038081 L4.88609901,6.00038081 Z M7.50444884,10.9379665 C7.50444884,10.7932216 7.48438284,10.6508759 7.45375578,10.5106626 C7.27738614,9.82745621 6.65137954,9.48705255 5.78088449,8.88861386 C5.46563696,8.78625286 5.11738614,8.72600914 4.74273267,8.7217441 C3.13850825,8.70601676 1.70141254,9.69177456 1.70141254,10.8777228 C1.70141254,12.0860625 2.86075248,12.9694593 4.46286469,12.9694593 C6.71765017,12.9694593 7.50444884,12.1481721 7.50444884,10.9379665 L7.50444884,10.9379665 Z M8.91250165,0.190594059 L7.97811221,1.17182026 L6.65137954,1.17182026 C7.53085149,1.6636329 8.04649505,2.46039604 8.04649505,3.50159939 C8.04649505,4.37833206 7.5110495,5.06820259 6.8190363,5.60426504 C6.14682508,6.12486672 6.01666007,6.34531607 6.01666007,6.78808073 C6.01666007,7.16633663 6.73956436,7.81169078 7.11633003,8.07638995 C8.22048845,8.85076161 8.54682508,9.56942117 8.54682508,10.7686976 C8.54682508,12.2662605 7.11633003,13.9373572 4.47184158,13.9373572 C2.15316172,13.9373572 0.13230363,12.8159177 0.13230363,11.3204874 C0.13230363,9.8007997 1.98128053,8.33442498 4.2999604,8.33442498 C4.55342574,8.33442498 4.78471287,8.32349581 5.0249769,8.32349581 C4.70761716,8.01854532 4.45626403,7.63815689 4.45626403,7.17300076 C4.45626403,6.89923839 4.54444884,6.62334349 4.6680132,6.38983244 C4.54233663,6.39862909 4.41217162,6.37650419 4.27989439,6.37650419 C2.37573597,6.37650419 1.09758416,4.98583397 1.09758416,3.32140137 C1.09758416,1.69028941 2.86075248,0.190594059 4.7340198,0.190594059 L8.91250165,0.190594059 Z" id="Fill-3"></path>
                    </g>
                </g>
            </g>
        </g>
    </g>
</svg>