<?xml version="1.0" encoding="utf-8"?>
<!-- Generator: Adobe Illustrator 19.0.0, SVG Export Plug-In . SVG Version: 6.00 Build 0)  -->
<svg version="1.1" id="Layer_1" xmlns="http://www.w3.org/2000/svg" xmlns:xlink="http://www.w3.org/1999/xlink" x="0px" y="0px"
	 viewBox="0 0 100 100" enable-background="new 0 0 100 100" xml:space="preserve">
<g id="XMLID_5_">
	<g id="XMLID_8_">
		<path id="XMLID_9_" fill="#010101" d="M63.451,68.097c-17.396,0-31.548-14.153-31.548-31.549S46.056,5,63.451,5
			S95,19.153,95,36.548S80.847,68.097,63.451,68.097z M63.451,8.913c-15.238,0-27.635,12.397-27.635,27.635
			c0,15.238,12.397,27.635,27.635,27.635c15.238,0,27.635-12.397,27.635-27.635C91.087,21.31,78.69,8.913,63.451,8.913z"/>
	</g>
	<g id="XMLID_6_">
		<path id="XMLID_1_" fill="#010101" d="M6.957,95c-0.501,0-1.001-0.191-1.384-0.573c-0.764-0.764-0.764-2.003,0-2.767l35.51-35.51
			c0.764-0.764,2.003-0.764,2.767,0c0.764,0.764,0.764,2.003,0,2.767L8.34,94.427C7.958,94.809,7.457,95,6.957,95z"/>
	</g>
</g>
</svg>
