<?xml version="1.0" encoding="utf-8"?>
<!-- Generator: Adobe Illustrator 19.0.0, SVG Export Plug-In . SVG Version: 6.00 Build 0)  -->
<svg version="1.1" id="Layer_1" xmlns="http://www.w3.org/2000/svg" xmlns:xlink="http://www.w3.org/1999/xlink" x="0px" y="0px"
	 viewBox="0 0 100 100" enable-background="new 0 0 100 100" xml:space="preserve">
<g>
	<g>
		<path d="M42.643,84.618H15.274c-5.32,0-9.648-4.339-9.648-9.673l0.003-0.275l2.915-48.102h11.769v-5.425
			c0-8.512,6.906-15.437,15.395-15.437c8.489,0,15.395,6.925,15.395,15.437v5.425h11.695l1.85,16.337
			c0.095,0.839-0.508,1.597-1.348,1.692c-0.841,0.096-1.597-0.508-1.692-1.348l-1.542-13.623H48.044v-8.483
			c0-6.826-5.534-12.379-12.336-12.379c-6.802,0-12.337,5.553-12.337,12.379v8.483H11.423L8.685,74.809v0.136
			c0,3.647,2.956,6.614,6.589,6.614h27.368c0.845,0,1.529,0.685,1.529,1.529C44.172,83.933,43.487,84.618,42.643,84.618z
			 M46.451,29.626H24.783v-8.483c0-5.99,4.86-10.862,10.834-10.862s10.834,4.873,10.834,10.862V29.626z M27.841,26.568h15.551
			v-5.425c0-4.303-3.488-7.804-7.775-7.804c-4.287,0-7.775,3.501-7.775,7.804V26.568z"/>
	</g>
	<g>
		<path d="M70.241,95.706c-13.307,0-24.132-10.826-24.132-24.132c0-13.307,10.826-24.133,24.132-24.133
			c13.307,0,24.133,10.826,24.133,24.133C94.374,84.88,83.548,95.706,70.241,95.706z M70.241,50.499
			c-11.62,0-21.074,9.454-21.074,21.074c0,11.62,9.454,21.074,21.074,21.074c11.62,0,21.074-9.454,21.074-21.074
			C91.315,59.953,81.862,50.499,70.241,50.499z"/>
	</g>
	<g>
		<path d="M77.567,73.102H66.265c-0.845,0-1.529-0.685-1.529-1.529c0-0.845,0.685-1.529,1.529-1.529h11.302
			c0.845,0,1.529,0.685,1.529,1.529C79.096,72.418,78.411,73.102,77.567,73.102z"/>
	</g>
	<g>
		<path d="M66.265,73.102c-0.845,0-1.529-0.685-1.529-1.529V60.271c0-0.845,0.685-1.529,1.529-1.529s1.529,0.685,1.529,1.529v11.302
			C67.794,72.418,67.11,73.102,66.265,73.102z"/>
	</g>
</g>
</svg>
