<?xml version="1.0" encoding="utf-8"?>
<!-- Generator: Adobe Illustrator 19.0.0, SVG Export Plug-In . SVG Version: 6.00 Build 0)  -->
<svg version="1.1" id="Layer_1" xmlns="http://www.w3.org/2000/svg" xmlns:xlink="http://www.w3.org/1999/xlink" x="0px" y="0px"
	 viewBox="0 0 100 100" enable-background="new 0 0 100 100" xml:space="preserve">
<g>
	<g>
		<path fill="#010101" d="M470,251.4c-44.112,0-80-35.679-80-79.534V80.934C390,37.079,425.888,1.4,470,1.4s80,35.679,80,79.534
			v90.932C550,215.722,514.112,251.4,470,251.4z M470,11.4c-38.598,0-70,31.193-70,69.534v90.932c0,38.341,31.402,69.534,70,69.534
			s70-31.193,70-69.534V80.934C540,42.593,508.598,11.4,470,11.4z"/>
	</g>
	<g>
		<ellipse fill="#010101" cx="468.5" cy="66.922" rx="15" ry="14.907"/>
	</g>
</g>
<g id="XMLID_2_">
	<g id="XMLID_5_">
		<path id="XMLID_6_" fill="#010101" d="M50,95c-15.88,0-28.8-12.844-28.8-28.632V33.632C21.2,17.844,34.12,5,50,5
			s28.8,12.844,28.8,28.632v32.736C78.8,82.156,65.88,95,50,95z M50,8.6c-13.895,0-25.2,11.229-25.2,25.032v32.736
			C24.8,80.17,36.105,91.4,50,91.4s25.2-11.23,25.2-25.032V33.632C75.2,19.829,63.895,8.6,50,8.6z"/>
	</g>
	<g id="XMLID_3_">
		<ellipse id="XMLID_4_" fill="#010101" cx="49.46" cy="28.588" rx="5.4" ry="5.366"/>
	</g>
</g>
</svg>
