<?xml version="1.0" encoding="utf-8"?>
<!-- Generator: Adobe Illustrator 19.0.0, SVG Export Plug-In . SVG Version: 6.00 Build 0)  -->
<svg version="1.1" id="Layer_1" xmlns="http://www.w3.org/2000/svg" xmlns:xlink="http://www.w3.org/1999/xlink" x="0px" y="0px"
	 viewBox="0 0 100 100" enable-background="new 0 0 100 100" xml:space="preserve">
<g id="XMLID_9_">
	<path id="XMLID_3_" fill="#010101" d="M49.981,95c-12.025,0-23.33-4.681-31.833-13.181c-0.676-0.676-0.676-1.772,0-2.448
		c0.676-0.676,1.771-0.676,2.448,0c7.849,7.846,18.286,12.167,29.386,12.167c22.915,0,41.557-18.634,41.557-41.539
		S72.896,8.462,49.981,8.462c-11.1,0-21.536,4.321-29.385,12.167c-0.677,0.676-1.772,0.675-2.448-0.001
		c-0.676-0.676-0.675-1.772,0-2.448C26.652,9.681,37.957,5,49.981,5C74.805,5,95,25.187,95,50S74.805,95,49.981,95z"/>
</g>
<g id="XMLID_7_">
	<path id="XMLID_2_" fill="#010101" d="M43.055,72.5c-0.443,0-0.886-0.169-1.224-0.507c-0.676-0.676-0.676-1.772,0-2.448L61.386,50
		L41.832,30.455c-0.676-0.676-0.676-1.771,0-2.448c0.676-0.676,1.772-0.676,2.448-0.001L66.282,50L44.279,71.993
		C43.941,72.331,43.498,72.5,43.055,72.5z"/>
</g>
<g id="XMLID_5_">
	<path id="XMLID_1_" fill="#010101" d="M63.834,51.731H6.731C5.775,51.731,5,50.956,5,50c0-0.956,0.775-1.731,1.731-1.731h57.103
		c0.956,0,1.731,0.775,1.731,1.731C65.564,50.956,64.79,51.731,63.834,51.731z"/>
</g>
</svg>
