<?xml version="1.0" encoding="utf-8"?>
<!-- Generator: Adobe Illustrator 19.0.0, SVG Export Plug-In . SVG Version: 6.00 Build 0)  -->
<svg version="1.1" id="Layer_1" xmlns="http://www.w3.org/2000/svg" xmlns:xlink="http://www.w3.org/1999/xlink" x="0px" y="0px"
	 viewBox="0 0 100 100" enable-background="new 0 0 100 100" xml:space="preserve">
<g id="XMLID_6_">
	<path id="XMLID_7_" fill="#010101" d="M73.534,95H26.466c-6.11,0-11.081-4.944-11.081-11.021l0.003-0.314l3.356-54.864H32.3v-6.203
		C32.3,12.894,40.24,5,50,5c9.76,0,17.7,7.894,17.7,17.598v6.203h13.556l3.359,55.178C84.615,90.056,79.644,95,73.534,95z
		 M18.846,83.823v0.156c0,4.169,3.418,7.56,7.62,7.56h47.068c4.185,0,7.593-3.364,7.62-7.51l-3.155-51.766H64.239v-9.664
		c0-7.795-6.387-14.136-14.239-14.136s-14.239,6.341-14.239,14.136v9.664H22L18.846,83.823z M62.342,32.262H37.448v-9.664
		c0-6.825,5.584-12.378,12.447-12.378s12.447,5.553,12.447,12.378V32.262z M40.909,28.801H58.88v-6.203
		c0-4.917-4.031-8.917-8.985-8.917s-8.985,4-8.985,8.917V28.801z"/>
</g>
</svg>
