<?xml version="1.0" encoding="utf-8"?>
<!-- Generator: Adobe Illustrator 19.0.0, SVG Export Plug-In . SVG Version: 6.00 Build 0)  -->
<svg version="1.1" id="Layer_1" xmlns="http://www.w3.org/2000/svg" xmlns:xlink="http://www.w3.org/1999/xlink" x="0px" y="0px"
	 viewBox="0 0 100 100" enable-background="new 0 0 100 100" xml:space="preserve">
<g>
	<g>
		<path fill="#010101" d="M470,251.4c-44.112,0-80-35.679-80-79.534V80.934C390,37.079,425.888,1.4,470,1.4s80,35.679,80,79.534
			v90.932C550,215.722,514.112,251.4,470,251.4z M470,11.4c-38.598,0-70,31.193-70,69.534v90.932c0,38.341,31.402,69.534,70,69.534
			s70-31.193,70-69.534V80.934C540,42.593,508.598,11.4,470,11.4z"/>
	</g>
	<g>
		<ellipse fill="#010101" cx="468.5" cy="66.922" rx="15" ry="14.907"/>
	</g>
</g>
<g id="XMLID_12_">
	<g id="XMLID_13_">
		<path id="XMLID_14_" fill="#010101" d="M14.018,72.501l-2.996-1.733C19.05,56.89,33.985,48.269,50,48.269
			c16.014,0,30.949,8.62,38.978,22.497l-2.996,1.733C78.57,59.689,64.783,51.731,50,51.731
			C35.217,51.731,21.429,59.689,14.018,72.501z"/>
	</g>
</g>
<g id="XMLID_7_">
	<g id="XMLID_8_">
		<path id="XMLID_9_" fill="#010101" d="M50,44.115c-8.589,0-15.577-6.988-15.577-15.577S41.411,12.961,50,12.961
			s15.577,6.988,15.577,15.577S58.589,44.115,50,44.115z M50,16.423c-6.68,0-12.115,5.435-12.115,12.115S43.32,40.654,50,40.654
			s12.115-5.435,12.115-12.115S56.68,16.423,50,16.423z"/>
	</g>
</g>
<g id="XMLID_2_">
	<g id="XMLID_3_">
		<path id="XMLID_4_" fill="#010101" d="M50,95C25.187,95,5,74.813,5,50S25.187,5,50,5s45,20.187,45,45S74.813,95,50,95z M50,8.461
			C27.096,8.461,8.462,27.095,8.462,50S27.096,91.539,50,91.539S91.538,72.904,91.538,50S72.904,8.461,50,8.461z"/>
	</g>
</g>
</svg>
