<?xml version="1.0" encoding="UTF-8" standalone="no"?>
<svg width="16px" height="16px" viewBox="0 0 16 16" version="1.1" xmlns="http://www.w3.org/2000/svg" xmlns:xlink="http://www.w3.org/1999/xlink">
    <!-- Generator: Sketch 42 (36781) - http://www.bohemiancoding.com/sketch -->
    <title>instagram</title>
    <desc>Created with Sketch.</desc>
    <defs></defs>
    <g id="Herbarium-v2.0" stroke="none" stroke-width="1" fill="none" fill-rule="evenodd">
        <g id="Herbarium-info-social-v2.0" transform="translate(-1288.000000, -977.000000)" fill="#9B9B9B">
            <g id="share-white" transform="translate(1219.000000, 970.000000)">
                <g id="social" transform="translate(0.000000, 7.000000)">
                    <g id="instagram" transform="translate(69.000000, 0.000000)">
                        <path d="M14.5457426,8.05280528 C14.5457426,5.93848185 14.5394059,5.68712871 14.4992739,4.85280528 C14.4654785,4.07973597 14.3366337,3.66151815 14.2267987,3.38059406 C14.0831683,3.0109571 13.9120792,2.74693069 13.6353795,2.47023102 C13.3586799,2.19353135 13.0946535,2.02244224 12.7250165,1.87881188 C12.4462046,1.7689769 12.0258746,1.64013201 11.2528053,1.60633663 C10.4184818,1.56620462 10.1671287,1.55986799 8.05280528,1.55986799 C5.93848185,1.55986799 5.68712871,1.56620462 4.85280528,1.60633663 C4.07973597,1.64013201 3.65940594,1.7689769 3.38059406,1.87881188 C3.0109571,2.02244224 2.74693069,2.19353135 2.47023102,2.47023102 C2.19353135,2.74693069 2.02244224,3.0109571 1.87881188,3.38059406 C1.7689769,3.66151815 1.64013201,4.07973597 1.60633663,4.85280528 C1.56620462,5.68712871 1.55986799,5.93848185 1.55986799,8.05280528 C1.55986799,10.1671287 1.56620462,10.4184818 1.60633663,11.2528053 C1.64013201,12.0258746 1.7689769,12.4462046 1.87881188,12.7250165 C2.02244224,13.0946535 2.19353135,13.3586799 2.47023102,13.6353795 C2.74693069,13.9120792 3.0109571,14.0831683 3.38059406,14.2267987 C3.65940594,14.3366337 4.07973597,14.4654785 4.85280528,14.4992739 C5.68712871,14.5394059 5.93848185,14.5457426 8.05280528,14.5457426 C10.1671287,14.5457426 10.4184818,14.5394059 11.2528053,14.4992739 C12.0258746,14.4654785 12.4462046,14.3366337 12.7250165,14.2267987 C13.0946535,14.0831683 13.3586799,13.9120792 13.6353795,13.6353795 C13.9120792,13.3586799 14.0831683,13.0946535 14.2267987,12.7250165 C14.3366337,12.4462046 14.4654785,12.0258746 14.4992739,11.2528053 C14.5394059,10.4184818 14.5457426,10.1671287 14.5457426,8.05280528 M15.9250165,4.78732673 C15.9651485,5.63221122 15.9735974,5.90257426 15.9735974,8.05280528 C15.9735974,10.2030363 15.9651485,10.4733993 15.9250165,11.3182838 C15.8869967,12.1610561 15.7539274,12.7376898 15.5574917,13.240396 C15.3547195,13.7621122 15.0843564,14.2035644 14.6450165,14.6450165 C14.2035644,15.0843564 13.7621122,15.3547195 13.240396,15.5574917 C12.7376898,15.7539274 12.1610561,15.8869967 11.3182838,15.9250165 C10.4733993,15.9651485 10.2030363,15.9735974 8.05280528,15.9735974 C5.90257426,15.9735974 5.63221122,15.9651485 4.78732673,15.9250165 C3.94455446,15.8869967 3.36792079,15.7539274 2.86521452,15.5574917 C2.34349835,15.3547195 1.9020462,15.0843564 1.46059406,14.6450165 C1.02125413,14.2035644 0.750891089,13.7621122 0.548118812,13.240396 C0.351683168,12.7376898 0.218613861,12.1610561 0.180594059,11.3182838 C0.140462046,10.4733993 0.132013201,10.2030363 0.132013201,8.05280528 C0.132013201,5.90257426 0.140462046,5.63221122 0.180594059,4.78732673 C0.218613861,3.94455446 0.351683168,3.36792079 0.548118812,2.86521452 C0.750891089,2.34349835 1.02125413,1.9020462 1.46059406,1.46059406 C1.9020462,1.02125413 2.34349835,0.750891089 2.86521452,0.548118812 C3.36792079,0.351683168 3.94455446,0.218613861 4.78732673,0.180594059 C5.63221122,0.140462046 5.90257426,0.132013201 8.05280528,0.132013201 C10.2030363,0.132013201 10.4733993,0.140462046 11.3182838,0.180594059 C12.1610561,0.218613861 12.7376898,0.351683168 13.240396,0.548118812 C13.7621122,0.750891089 14.2035644,1.02125413 14.6450165,1.46059406 C15.0843564,1.9020462 15.3547195,2.34349835 15.5574917,2.86521452 C15.7539274,3.36792079 15.8869967,3.94455446 15.9250165,4.78732673" id="Fill-24"></path>
                        <path d="M12.2814521,2.87366337 C12.8052805,2.87366337 13.2319472,3.30033003 13.2319472,3.82415842 C13.2319472,4.35009901 12.8052805,4.77465347 12.2814521,4.77465347 C11.7555116,4.77465347 11.3309571,4.35009901 11.3309571,3.82415842 C11.3309571,3.30033003 11.7555116,2.87366337 12.2814521,2.87366337" id="Fill-26"></path>
                        <path d="M10.6930693,8.05280528 C10.6930693,6.59537954 9.51023102,5.41254125 8.05280528,5.41254125 C6.59537954,5.41254125 5.41254125,6.59537954 5.41254125,8.05280528 C5.41254125,9.51023102 6.59537954,10.6930693 8.05280528,10.6930693 C9.51023102,10.6930693 10.6930693,9.51023102 10.6930693,8.05280528 M8.05280528,3.98468647 C10.300198,3.98468647 12.1209241,5.80541254 12.1209241,8.05280528 C12.1209241,10.300198 10.300198,12.1209241 8.05280528,12.1209241 C5.80541254,12.1209241 3.98468647,10.300198 3.98468647,8.05280528 C3.98468647,5.80541254 5.80541254,3.98468647 8.05280528,3.98468647" id="Fill-28"></path>
                    </g>
                </g>
            </g>
        </g>
    </g>
</svg>