<?xml version="1.0" encoding="UTF-8" standalone="no"?>
<svg width="20px" height="16px" viewBox="0 0 20 16" version="1.1" xmlns="http://www.w3.org/2000/svg" xmlns:xlink="http://www.w3.org/1999/xlink">
    <!-- Generator: Sketch 42 (36781) - http://www.bohemiancoding.com/sketch -->
    <title>twitter</title>
    <desc>Created with Sketch.</desc>
    <defs></defs>
    <g id="Herbarium-v2.0" stroke="none" stroke-width="1" fill="none" fill-rule="evenodd">
        <g id="Herbarium-info-social-v2.0" transform="translate(-1340.000000, -977.000000)" fill="#9B9B9B">
            <g id="share-white" transform="translate(1219.000000, 970.000000)">
                <g id="social" transform="translate(0.000000, 7.000000)">
                    <g id="twitter" transform="translate(121.000000, 0.000000)">
                        <path d="M18.6081739,3.42273684 C18.3951304,3.58736842 18.1812174,3.75073684 17.9673043,3.91621053 C17.9794783,4.82905263 17.9538261,5.69978947 17.7773043,6.46694737 C16.7525217,10.9275789 14.0373043,13.9557895 9.73947826,15.2526316 C8.196,15.7187368 5.70165217,15.9094737 3.9333913,15.4842105 C3.05686957,15.2736842 2.26426087,15.0353684 1.52078261,14.7212632 C1.10817391,14.5461053 0.725565217,14.3570526 0.359913043,14.1414737 C0.239913043,14.0698947 0.119913043,13.9991579 -8.6956522e-05,13.9284211 C0.398608696,13.9402105 0.865130435,14.0467368 1.31121739,13.976 C1.71469565,13.9136842 2.11034783,13.9301053 2.48208696,13.8513684 C3.41078261,13.6538947 4.23469565,13.3932632 4.94426087,12.9911579 C5.28904348,12.7962105 5.81121739,12.5667368 6.056,12.2854737 C5.59469565,12.2926316 5.17686957,12.1898947 4.83469565,12.0732632 C3.50730435,11.6193684 2.73469565,10.7844211 2.23208696,9.53052632 C2.63426087,9.57305263 3.79252174,9.67536842 4.06382609,9.45389474 C3.55730435,9.42694737 3.07078261,9.14231579 2.72208696,8.93178947 C1.65469565,8.28463158 0.783826087,7.2 0.790347826,5.52968421 C0.930782609,5.59452632 1.07078261,5.65894737 1.21078261,5.72294737 C1.47947826,5.83242105 1.75165217,5.89052632 2.07165217,5.95494737 C2.20686957,5.98189474 2.47686957,6.05852632 2.63252174,6.00336842 L2.61252174,6.00336842 C2.40556522,5.77052632 2.06904348,5.61431579 1.86165217,5.36589474 C1.17643478,4.54021053 0.534695652,3.27157895 0.940782609,1.76 C1.0433913,1.37768421 1.20730435,1.03789474 1.38121739,0.726315789 C1.38817391,0.729684211 1.39426087,0.732631579 1.40121739,0.735157895 C1.48078261,0.897263158 1.6586087,1.01642105 1.77121739,1.15073684 C2.12165217,1.57178947 2.55295652,1.94905263 2.99252174,2.28210526 C4.49078261,3.41684211 5.84078261,4.11452632 8.00773913,4.63073684 C8.55730435,4.76252632 9.19295652,4.86189474 9.84947826,4.86273684 C9.66556522,4.34315789 9.72382609,3.50105263 9.86947826,2.99747368 C10.2346957,1.73094737 11.0277391,0.818947368 12.192087,0.329684211 C12.469913,0.213894737 12.7790435,0.128421053 13.1029565,0.0593684211 C13.2694783,0.0404210526 13.4364348,0.0206315789 13.6029565,0.000842105263 C15.1929565,-0.0252631579 16.0386087,0.535578947 16.8468696,1.24842105 C17.532087,1.19073684 18.4238261,0.819789474 18.9486087,0.562526316 C19.1190435,0.471157895 19.2890435,0.381473684 19.4594783,0.291368421 C19.1594783,1.07578947 18.7525217,1.69010526 18.1281739,2.15705263 C17.9894783,2.25978947 17.8516522,2.39957895 17.6773043,2.46652632 L17.6773043,2.47536842 C18.5673043,2.46652632 19.3025217,2.07747368 19.999913,1.86694737 L19.999913,1.87663158 C19.6329565,2.44084211 19.1377391,3.01305263 18.6081739,3.42273684" id="Fill-1"></path>
                    </g>
                </g>
            </g>
        </g>
    </g>
</svg>